<svg width="200" height="30" viewBox="0 0 200 30" fill="none" xmlns="http://www.w3.org/2000/svg">
<g clip-path="url(#clip0_497_2)">
<path fill-rule="evenodd" clip-rule="evenodd" d="M7.80359 18.6788C7.70716 18.5842 7.50239 18.3712 7.1893 18.0398C6.87621 17.7081 6.67145 17.4953 6.5753 17.4006C6.33452 17.4003 6.21396 17.6136 6.21396 18.0398C6.3104 18.0395 6.5753 18.1463 7.00866 18.3595C7.4423 18.5725 7.7072 18.679 7.80364 18.6788H7.80359ZM57.7321 16.7614V16.5481C57.7321 15.8855 57.4431 15.5541 56.8651 15.5541C56.5761 15.5538 56.4317 15.6251 56.4317 15.7673C56.4317 15.9563 56.6002 16.1696 56.9374 16.4065C57.2746 16.6427 57.5395 16.7617 57.7321 16.7614ZM81.0708 16.4773H80.8539C80.6131 16.4773 80.2521 16.6315 79.7702 16.9389C79.2884 17.2465 79.0476 17.4717 79.0476 17.6136L79.2645 17.6844C79.4571 17.732 79.6258 17.7557 79.7702 17.7557C80.589 17.7552 81.0224 17.448 81.0708 16.8325V16.4773ZM81.2155 8.73613C81.2634 8.2146 81.2634 7.88365 81.2155 7.74149C81.0224 7.83573 80.8059 8.07322 80.5652 8.45204C80.6613 8.49891 80.878 8.59393 81.2155 8.73613ZM82.8049 8.94913C82.6605 8.47525 82.3474 8.16773 81.8658 8.02557C81.7212 8.4044 81.6971 8.66477 81.7932 8.80698C81.9379 8.90149 82.2751 8.94913 82.8049 8.94913ZM98.629 18.4658C98.5808 18.4182 98.4242 18.2528 98.1593 17.969C97.8941 17.6844 97.7378 17.4954 97.6894 17.4006C97.4489 17.4004 97.3283 17.6136 97.3283 18.0398C97.3765 18.0396 97.5935 18.1109 97.9786 18.2528C98.3638 18.3945 98.5807 18.4661 98.6289 18.4658L98.629 18.4658ZM9.97125 22.7984C9.77839 23.5561 9.32095 24.124 8.59828 24.5028C7.24972 25.1181 5.39515 26.2072 3.03467 27.7697C3.27545 27.1542 3.66118 26.6334 4.19093 26.2072C5.68417 25.1657 7.611 24.0295 9.97125 22.7984ZM8.16492 9.30398C8.16492 9.6828 7.99618 10.133 7.65896 10.6538L7.51462 10.6532C7.61105 10.133 7.4905 9.87237 7.15329 9.87237C6.76788 9.87183 6.55118 10.5353 6.50298 11.8608C6.50298 12.6657 6.50298 13.4944 6.50298 14.3466L6.35836 14.346C6.35836 13.9204 6.16577 13.3999 5.78065 12.7841C5.39524 12.1683 4.98567 11.8608 4.55203 11.8608C4.55203 12.3818 4.23894 12.6422 3.61271 12.6422C2.98648 12.6416 2.67339 12.2634 2.67339 11.5057C2.67339 10.843 3.05879 10.5116 3.82964 10.5116C4.98567 10.511 5.7806 11.1505 6.21396 12.4289C6.21396 11.5767 6.21396 10.748 6.21396 9.94318C6.3104 8.9014 6.67145 8.38069 7.29763 8.38069C7.8759 8.38042 8.16492 8.68871 8.16492 9.30398ZM39.8129 14.0623C39.6683 14.6784 39.3552 15.2226 38.8736 15.6959C38.8736 15.6959 38.7772 15.6959 38.5846 15.6959C38.44 15.6483 38.2712 15.6251 38.0786 15.6251C36.489 15.6251 34.755 16.1225 32.8763 17.1165C30.9974 18.1109 29.6489 18.6082 28.83 18.6082C27.9627 18.608 27.1922 18.2294 26.5177 17.4717C23.6278 19.6497 19.9187 20.7386 15.3902 20.7386C12.5964 20.7386 10.5492 20.4545 9.24863 19.8867C9.15248 19.8864 8.99568 20.0994 8.77897 20.5256C8.56227 20.9516 8.38163 21.1648 8.237 21.1648C8.04441 21.1643 7.65901 20.9993 7.08097 20.6678C6.35831 20.3361 5.92495 20.1708 5.7806 20.1708C5.29876 21.2589 4.5761 22.0645 3.61266 22.5852C2.31201 23.295 1.10779 23.6507 0 23.6507V23.3664C2.84208 22.1355 4.55198 20.8571 5.13025 19.5316C5.13025 17.2111 5.68417 16.0514 6.79195 16.0514C6.74376 16.0508 7.12917 16.2998 7.94798 16.7971C8.7668 17.2941 9.68228 17.7084 10.6939 18.0399C12.1872 18.5135 13.825 18.7502 15.6072 18.7502C17.582 18.7502 19.6535 18.4898 21.8212 17.9691C24.4707 17.3056 26.325 16.43 27.3848 15.3411C27.433 15.3408 27.5054 15.4122 27.6017 15.5541C27.5533 15.696 27.5053 15.8858 27.4571 16.1225C27.8908 16.5482 28.4206 16.7617 29.0467 16.7617C29.8656 16.7614 31.3829 16.1459 33.5987 14.9149C32.1055 14.3938 31.0939 14.1337 30.5641 14.1337C30.3715 14.1332 30.2512 14.2048 30.2027 14.3467L28.1797 14.2754V14.1332C28.1797 12.8077 28.9744 12.145 30.5641 12.145C31.0459 12.1447 31.7924 12.3582 32.804 12.7842C34.0562 13.305 34.8032 13.589 35.044 13.6367C36.0556 13.9205 37.6453 14.0627 39.8129 14.0624V14.0623ZM28.1797 21.9457C28.1797 22.419 28.0113 22.9877 27.6738 23.6507C27.1922 23.6507 26.6624 23.5085 26.0842 23.2244C25.9398 23.3189 25.7228 23.6744 25.4338 24.2899C24.2296 23.9581 23.6278 23.5562 23.6278 23.0825C23.6278 22.9401 23.7963 22.5378 24.1332 21.8751C24.6633 21.8749 25.2174 22.017 25.7952 22.3011C25.9398 22.0641 26.2288 21.6856 26.6625 21.1648L28.1798 21.9457L28.1797 21.9457ZM19.0032 13.4231C19.244 13.7543 19.3645 14.1337 19.3645 14.5599C19.3645 15.6014 18.9791 16.1224 18.2085 16.1224C17.3894 16.1221 16.9799 15.6959 16.9799 14.844C16.9799 14.2276 17.1727 13.5655 17.5581 12.8552C17.8953 12.2868 18.2567 11.7189 18.6418 11.1505L18.7864 11.1503C18.2566 12.9492 17.9915 13.873 17.9915 13.9207C17.9915 14.3938 18.1599 14.6307 18.4974 14.6307C18.9308 14.6305 19.0754 14.2995 18.9308 13.6366L19.0031 13.4231H19.0032ZM18.2805 3.12506C18.1362 5.06642 16.426 6.46304 13.1503 7.31552L12.8612 7.24417C14.0175 6.81848 15.1977 5.98971 16.4019 4.75863C16.4019 4.33266 15.9685 4.11943 15.1012 4.11943C14.2824 4.11915 13.5116 4.33266 12.7892 4.75863C13.2708 3.62211 13.6801 2.92403 14.0176 2.66365C14.3548 2.40273 14.9328 2.27281 15.7516 2.27281C16.8114 2.27281 17.6543 2.5569 18.2805 3.12502V3.12506ZM36.6336 20.8808C36.5372 21.1174 36.2122 21.4015 35.6583 21.733C35.1041 22.0642 34.5621 22.2303 34.0324 22.2303C33.4544 22.23 33.1654 21.9936 33.1654 21.52C33.1654 21.1406 33.4061 20.7151 33.8877 20.2415L34.538 19.6728C34.3455 19.5315 34.1288 19.4601 33.8877 19.4601C33.5987 19.4601 33.31 19.4841 33.021 19.5315C33.2615 18.9154 33.7193 18.6082 34.3937 18.6082C34.6827 18.6079 35.0199 18.7267 35.4053 18.9631C35.3089 19.1526 35.1161 19.413 34.8271 19.7445C34.2011 20.4542 33.8877 20.8808 33.8877 21.0226C33.8877 21.3541 34.1047 21.52 34.538 21.52C35.0199 21.52 35.7181 21.307 36.6336 20.8808ZM35.6943 3.4091C35.6943 3.92958 35.4053 4.62844 34.827 5.50435C34.249 6.3805 33.5748 7.00801 32.804 7.3866C33.671 6.24981 34.1047 5.42154 34.1047 4.90083C24.8079 6.79454 16.9079 9.65919 10.4049 13.4945C10.6457 12.5472 10.8865 12.0031 11.1273 11.8609C13.6321 10.2036 17.5097 8.47548 22.7605 6.67628C27.7702 5.019 32.0814 3.93013 35.6943 3.4091ZM67.3423 13.2809C66.8605 13.6124 66.2584 13.9915 65.5357 14.4177C64.4279 14.1808 63.6091 14.0626 63.0793 14.0626C61.3932 14.0623 59.9962 14.3466 58.8884 14.9148C58.8884 17.4714 58.4547 18.7501 57.5877 18.7501C56.9133 18.7501 56.1186 18.4423 55.2031 17.8268C55.0105 18.442 54.6853 18.9276 54.2278 19.2828C53.77 19.6374 53.2283 19.8152 52.6021 19.8152C52.6021 22.2299 51.2291 24.1953 48.4835 25.7101C46.3638 26.8938 43.5461 27.841 40.0296 28.551C36.8503 29.2134 33.8156 29.5454 30.9253 29.5454C21.6768 29.5451 15.1494 27.0122 11.3442 21.9458L11.4162 21.6615C16.4741 25.4495 23.1217 27.3437 31.3589 27.3437C36.6095 27.3434 41.3543 26.6097 45.5934 25.1419C49.6879 23.7682 51.7348 22.301 51.7348 20.7385C51.7348 20.312 51.5782 19.8746 51.2651 19.4246C50.9523 18.9749 50.7958 18.6789 50.7958 18.5367C50.7958 18.2998 50.9883 17.7793 51.3735 16.9743C52.1443 17.5898 52.6503 17.8975 52.8911 17.8975C53.8063 17.8973 54.5045 17.4479 54.9866 16.5483C55.709 15.2696 56.0703 14.6306 56.0703 14.6306C57.1781 13.6836 58.9121 13.0447 61.2726 12.713C59.7312 12.0974 58.6954 11.7897 58.1656 11.7897C58.0213 11.7897 57.9248 11.8845 57.8766 12.074L55.5643 12.0737V11.7189C55.5643 10.2982 56.4316 9.58792 58.1656 9.58792C58.8883 9.58765 59.8758 9.94309 61.128 10.6536C63.0551 11.6475 65.126 12.5236 67.3422 13.2808L67.3423 13.2809ZM43.7869 14.8437C43.7869 16.0271 43.4256 17.1165 42.7032 18.1109C41.9804 19.105 41.6193 19.6497 41.6193 19.7445C41.6193 21.2119 41.2341 22.5851 40.4633 23.8636C39.5478 25.3311 38.3677 26.0653 36.9226 26.0653C35.622 26.0648 34.3937 25.876 33.2374 25.4972L33.382 25.284C34.3937 25.284 35.3568 25.1657 36.2723 24.9288C37.1875 24.6919 38.2111 24.0294 39.343 22.9403C40.4752 21.8512 41.041 20.9282 41.041 20.1708C41.041 19.7442 40.8246 19.3183 40.3907 18.892C39.9573 18.4658 39.7404 18.2528 39.7404 18.2528C39.7404 18.0156 39.885 17.448 40.1743 16.5484C40.6077 16.8322 41.0895 16.9744 41.6193 16.9744C42.2937 16.9738 42.7512 16.714 42.992 16.1933C42.8476 15.009 42.4863 13.163 41.9083 10.6538C41.3785 8.47525 41.0651 7.29214 40.969 7.10229C40.4392 5.87126 40.1743 5.11384 40.1743 4.82975C40.1743 4.45116 40.3669 3.88303 40.7523 3.12534C41.1857 3.59845 41.8119 4.3798 42.6307 5.46895C42.5827 5.61061 42.4863 5.84778 42.3416 6.17928C42.1973 6.51046 42.1249 6.7474 42.1249 6.8896C42.1249 6.84168 42.402 8.00219 42.9559 10.3695C43.5101 12.7371 43.7869 14.2282 43.7869 14.8438V14.8437ZM46.5326 20.5964L45.1596 21.9457L43.7869 20.5251L45.0876 19.1758L46.5326 20.5964ZM39.0903 8.73608C39.0903 9.96634 38.729 10.5824 38.0064 10.5824C37.621 10.5818 37.3078 10.4879 37.067 10.2986C36.6819 10.8662 36.3685 11.1505 36.1277 11.1505C35.4536 11.1502 35.1161 10.748 35.1161 9.94313C35.1161 9.65905 35.1646 9.37528 35.2607 9.0912L35.5497 8.94904C35.5497 9.51689 35.7908 9.80125 36.2724 9.80125C36.7058 9.80098 36.9227 9.37528 36.9227 8.5228L37.284 8.16764C37.284 8.7829 37.5007 9.0912 37.9343 9.0912C38.2713 9.09093 38.4882 8.66468 38.5846 7.81275L38.9457 7.52844C39.0421 7.90703 39.0903 8.30984 39.0903 8.73608ZM60.4778 21.307C60.3335 22.0641 59.876 22.6328 59.1051 23.0114C57.8045 23.6743 55.9499 24.7632 53.5415 26.2785C53.7823 25.6622 54.1677 25.142 54.6975 24.7161C56.191 23.6743 58.1176 22.5378 60.4778 21.307H60.4778ZM47.6886 16.0508C47.6886 16.8561 47.5201 17.8034 47.1829 18.892L44.1482 5.32703C44.1482 4.28502 44.3408 3.55126 44.7262 3.12529C44.8706 3.36169 45.4004 5.49262 46.3159 9.51721C47.2311 13.5415 47.6885 15.7198 47.6885 16.0508H47.6886ZM53.8305 13.4231C53.8305 14.4174 53.734 15.2465 53.5415 15.9091L53.3971 15.9089C53.3971 13.7306 52.9393 12.1923 52.0239 11.2927V9.44613C53.2284 10.6769 53.8305 12.003 53.8305 13.4231ZM65.6081 20.3829C65.5119 20.6196 65.1869 20.9044 64.6327 21.2359C64.0786 21.5668 63.5365 21.7329 63.0068 21.7329C62.3808 21.7326 62.0675 21.4963 62.0675 21.0226C62.0675 20.644 62.3327 20.2178 62.8624 19.7444L63.5128 19.1758C63.3202 19.0336 63.1032 18.963 62.8624 18.963C62.5252 18.9627 62.2359 18.9867 61.9954 19.0341C62.2359 18.4181 62.694 18.1108 63.3681 18.1108C63.6571 18.1108 63.9705 18.2293 64.3074 18.466C64.2595 18.6079 64.0667 18.8685 63.7297 19.2474C63.1515 19.9572 62.8624 20.3834 62.8624 20.5256C62.8624 20.8567 63.0553 21.0226 63.4404 21.0226C63.9705 21.0221 64.6929 20.8099 65.6081 20.3829L65.6081 20.3829ZM50.0732 4.47432C50.314 4.85314 50.4342 5.25595 50.4342 5.68196C50.4342 6.67632 50.0491 7.17364 49.2782 7.17364C48.4594 7.17337 48.0499 6.7474 48.0499 5.89519C48.0499 5.27938 48.2308 4.65215 48.5918 4.01322C48.9532 3.37375 49.3267 2.77018 49.7118 2.20205H49.8564C49.3266 4.00098 49.0615 4.92454 49.0615 4.97191C49.0615 5.44525 49.2299 5.68196 49.5674 5.68196C50.0008 5.68141 50.1454 5.3505 50.0008 4.68787L50.0731 4.47436L50.0732 4.47432ZM74.8569 23.5793C75.1459 23.9581 75.2903 24.3609 75.2903 24.7869C75.2903 25.8281 74.9051 26.3494 74.1343 26.3494C73.2673 26.3491 72.8336 25.8997 72.8336 25.0001C72.8336 24.3838 73.0265 23.7688 73.4116 23.1536C73.797 22.5375 74.1583 21.9225 74.4955 21.307L74.6399 21.3778C74.1101 23.1767 73.8452 24.1003 73.8452 24.1477C73.8452 24.621 74.0137 24.858 74.3509 24.858C74.7845 24.8577 74.9289 24.5028 74.7845 23.7928L74.8568 23.5793L74.8569 23.5793ZM65.0301 2.62775C65.0301 3.14877 64.741 3.84736 64.1631 4.72323C63.5851 5.59914 62.9347 6.25031 62.2121 6.67628C63.0309 5.49234 63.4404 4.64013 63.4404 4.11938C58.5269 5.11347 53.4692 7.07881 48.2669 10.0145C48.5077 9.1144 48.7485 8.57049 48.9893 8.38069C53.3246 5.49234 58.6715 3.57497 65.0301 2.6277L65.0301 2.62775ZM71.6053 14.8437C71.6053 16.0271 71.2562 17.1165 70.5577 18.1109C69.8591 19.105 69.5097 19.6497 69.5097 19.7445C69.5097 21.2589 69.1246 22.68 68.354 24.0058C67.4867 25.5678 66.3548 26.3494 64.9577 26.3494C64.1389 26.3491 62.8624 26.0653 61.1282 25.4972L61.2007 25.284C62.2606 25.284 63.272 25.1421 64.2354 24.858C65.0542 24.6682 66.0296 24.0295 67.1617 22.9403C68.2936 21.8512 68.8597 20.9282 68.8597 20.1708C68.8597 19.7442 68.643 19.3183 68.2094 18.892C67.7758 18.4658 67.5591 18.2528 67.5591 18.2528C67.5591 18.0156 67.7276 17.448 68.0648 16.5484C68.4502 16.8322 68.9079 16.9744 69.4377 16.9744C70.1601 16.9738 70.6178 16.714 70.8104 16.1933C70.6661 15.009 70.3048 13.163 69.7268 10.6538C69.2449 8.47525 68.9559 7.29214 68.8598 7.10229C68.2818 5.87126 67.9927 5.11384 67.9927 4.82975C67.9927 4.45116 68.1853 3.88303 68.5705 3.12534C69.0044 3.59845 69.6062 4.3798 70.3771 5.46895C70.3771 5.61061 70.3169 5.84778 70.1964 6.17928C70.0761 6.51046 70.0158 6.7474 70.0158 6.8896C70.0158 6.84168 70.2807 8.00219 70.8105 10.3695C71.3403 12.7371 71.6055 14.2282 71.6055 14.8438L71.6053 14.8437ZM84.1778 22.0171C84.0332 22.7747 83.5757 23.3429 82.8049 23.7217C81.5042 24.3367 79.6497 25.4262 77.2412 26.9886C77.482 26.3728 77.8675 25.8524 78.3975 25.4262C79.8907 24.3839 81.8173 23.2481 84.1778 22.0171ZM67.6313 8.02557C67.6313 9.30402 67.27 9.94322 66.5474 9.94322C66.1622 9.94267 65.8732 9.82473 65.6804 9.58806C65.2467 10.1562 64.9098 10.4405 64.6687 10.4405C64.0425 10.4403 63.7297 10.0617 63.7297 9.30402C63.7297 8.97284 63.7777 8.68876 63.874 8.45209L64.0907 8.30966C64.0907 8.83069 64.3315 9.09129 64.8134 9.09129C65.295 9.09102 65.5358 8.68876 65.5358 7.88365L65.8971 7.45768C65.8971 8.12004 66.09 8.45204 66.4751 8.45204C66.8605 8.45177 67.1013 8.02553 67.1978 7.1736L67.4868 6.88901C67.5832 7.22046 67.6314 7.59956 67.6314 8.02553L67.6313 8.02557ZM75.5072 16.0508C75.5072 16.8562 75.3626 17.8034 75.0736 18.892L71.9666 5.32707C71.9666 4.28506 72.1835 3.5513 72.6169 3.12534C72.7612 3.36173 73.2794 5.49266 74.1705 9.51726C75.0614 13.5416 75.5072 15.7199 75.5072 16.0508H75.5072ZM90.8975 16.9738C90.8975 19.2472 90.1751 20.3834 88.7301 20.3834C87.622 20.3829 86.8512 19.9101 86.4178 18.9631C86.0806 20.5251 85.1895 21.307 83.7442 21.307C82.9733 21.307 82.3715 20.9993 81.9378 20.3834C81.5042 19.7682 81.2875 19.0816 81.2875 18.3241C80.4687 19.6968 79.6497 20.3834 78.8309 20.3834C77.8675 20.3829 77.3859 19.7919 77.3859 18.6082C77.3859 17.7552 78.0002 16.9864 79.2283 16.2997C80.4566 15.6128 81.0709 15.2226 81.0709 15.128C81.1673 14.7015 81.2155 14.3232 81.2155 13.9915L81.8658 13.0682C82.0102 13.4471 82.0822 13.897 82.0822 14.4178C82.0822 14.7016 82.0462 15.1161 81.9742 15.6605C81.9019 16.2047 81.8659 16.6195 81.8659 16.9036C81.8659 18.2763 82.5641 18.9632 83.9612 18.9632C85.3101 18.9629 85.9842 18.3242 85.9842 17.0458C85.9842 16.6195 85.8759 15.9447 85.6589 15.0214C85.4425 14.0978 85.3338 13.4234 85.3338 12.9975C85.3338 12.5236 85.5508 11.861 85.9841 11.0088C86.3214 12.382 86.6586 13.7549 86.9958 15.1281C87.4773 16.9739 88.1759 17.8977 89.0911 17.8977C89.6694 17.8974 89.9584 17.685 89.9584 17.2585C89.9584 16.5005 89.6694 15.3885 89.0911 13.9208C88.5131 12.4528 88.2241 11.648 88.2241 11.5058C88.2241 11.2212 88.3206 10.8432 88.5131 10.3695C88.7057 9.8959 88.8022 9.54101 88.8022 9.30407C90.1992 12.3343 90.8975 14.8912 90.8975 16.9739L90.8975 16.9738ZM83.2385 8.80693C83.0459 9.70601 82.4677 10.038 81.5042 9.80129C81.119 10.6532 80.336 11.3518 79.1559 11.8965C77.9758 12.4405 76.8079 12.7131 75.6516 12.7131L75.5072 12.5709C75.8926 12.5709 76.7594 12.2397 78.1083 11.5771C79.6497 10.8662 80.6131 10.2512 80.9985 9.73022C80.4205 9.49355 80.1315 9.18553 80.1315 8.80693C80.1315 8.57026 80.1917 8.29792 80.3122 7.99013C80.4327 7.68261 80.4687 7.48111 80.4205 7.3866C80.3241 7.33868 80.2761 7.24445 80.2761 7.10229C80.2761 6.81848 80.589 6.67632 81.2155 6.67632C81.6006 6.67632 82.0583 6.92496 82.5882 7.42205C83.1179 7.91937 83.3349 8.38074 83.2385 8.80698L83.2385 8.80693ZM100.58 22.3008C100.435 23.0582 99.9779 23.6032 99.207 23.9347C97.9064 24.5973 96.0518 25.6864 93.6434 27.2018C93.9324 26.6334 94.3175 26.1127 94.7994 25.6393C96.2929 24.5973 98.2192 23.4848 100.58 22.3008H100.58ZM78.3252 3.76426C78.6139 4.14309 78.7586 4.54567 78.7586 4.97191C78.7586 6.01314 78.3731 6.53439 77.6025 6.53439C76.7835 6.53412 76.3742 6.08445 76.3742 5.18487C76.3742 4.56933 76.5548 3.9421 76.9159 3.3029C77.2772 2.66315 77.6507 2.05985 78.0361 1.49173L78.1082 1.56281C77.6266 3.36173 77.3858 4.28529 77.3858 4.33266C77.3858 4.806 77.5301 5.04271 77.8191 5.04271C78.301 5.04271 78.4694 4.68782 78.3251 3.97755V3.76431L78.3252 3.76426ZM88.3688 7.59906C88.3688 8.87778 87.9833 9.51726 87.2125 9.51726C86.8753 9.51698 86.5863 9.39876 86.3455 9.16209C85.9118 9.72971 85.599 10.0146 85.4062 10.0146C84.7317 10.0146 84.3945 9.63575 84.3945 8.87806C84.3945 8.54633 84.4427 8.26252 84.5392 8.02557L84.8282 7.88342C84.8282 8.40444 85.0689 8.66482 85.5508 8.66482C85.9842 8.66427 86.2011 8.26256 86.2011 7.45773L86.5622 7.03121C86.5622 7.69439 86.7791 8.02557 87.2125 8.02557C87.55 8.02557 87.7664 7.59961 87.8628 6.7474L88.1518 6.39196C88.2962 6.77079 88.3688 7.1736 88.3688 7.59906ZM94.0768 16.0508C94.0768 16.8562 93.9324 17.8034 93.6434 18.892L90.5361 5.32707C90.5361 4.28506 90.7531 3.5513 91.1864 3.12534C91.3311 3.36173 91.849 5.49266 92.74 9.51726C93.6312 13.5416 94.0767 15.7199 94.0767 16.0508H94.0768ZM86.7065 3.97727C86.7065 5.01905 86.5863 5.84782 86.3455 6.46304L86.2732 6.46277C86.2732 4.28502 85.7913 2.74647 84.8282 1.84684L84.9005 0C86.1047 1.23103 86.7065 2.5569 86.7065 3.97723V3.97727ZM99.8573 7.67041C99.8573 8.00187 99.6886 8.42838 99.3516 8.94913H99.207C99.3034 8.47525 99.1832 8.23881 98.8457 8.23881C98.4603 8.23853 98.2677 8.87801 98.2677 10.1565C98.2192 11.0084 98.1954 11.8374 98.1954 12.6422L98.051 12.6417C98.051 12.2631 97.8704 11.7663 97.5091 11.1505C97.1477 10.535 96.7263 10.2273 96.2444 10.2273C96.2444 10.7009 95.9313 10.9378 95.3051 10.9378C94.7271 10.9375 94.4381 10.5824 94.4381 9.87237C94.4381 9.20946 94.8235 8.87801 95.5943 8.87801C96.7021 8.87774 97.473 9.49382 97.9064 10.7246C97.9064 9.91952 97.9064 9.11468 97.9064 8.30989C98.0028 7.26788 98.3638 6.7474 98.99 6.7474C99.5683 6.74713 99.8573 7.05515 99.8573 7.67041ZM196.93 16.8615C196.305 17.2174 195.62 16.5721 195.235 16.1932C194.994 16.5718 194.777 16.9509 194.584 17.3297C194.103 17.9447 193.549 18.2527 192.922 18.2527C192.392 18.2522 191.887 18.0874 191.405 17.7557C190.682 18.5134 189.816 18.892 188.804 18.892C187.937 18.8914 186.949 18.4897 185.841 17.6849C180.88 19.2472 174.401 20.573 166.405 21.6618C157.3 22.8929 148.1 23.5084 138.803 23.5084C122.666 23.5079 109.852 22.3721 100.363 20.0993C100.267 20.0993 100.11 20.2771 99.8934 20.632C99.6767 20.9869 99.496 21.1648 99.3517 21.1648C99.1588 21.1642 98.7374 20.9992 98.087 20.6677C97.4367 20.336 97.0394 20.1707 96.8947 20.1707C96.4132 21.2588 95.6664 22.0644 94.6547 22.5851C93.4026 23.2949 92.2222 23.6506 91.1144 23.6506V23.3663C93.9562 22.1355 95.6664 20.8571 96.2444 19.5315C96.2444 17.211 96.7742 16.0513 97.834 16.0513C98.1232 16.0507 98.5688 16.3234 99.1709 16.8678C99.7728 17.4123 100.291 17.7557 100.724 17.8976C109.443 19.9335 122.666 20.9518 140.393 20.9518C158.746 20.9515 174.786 18.9631 188.515 14.9858V15.4115C188.418 15.5537 188.202 15.8143 187.864 16.1932C188.25 16.5718 188.756 16.7616 189.382 16.7616C190.201 16.7613 191.333 16.0512 192.778 14.6306C192.826 14.7962 192.874 14.9624 192.922 15.128C192.922 15.1748 192.802 15.4355 192.561 15.9091C192.802 16.1455 193.091 16.2642 193.428 16.2642C194.488 16.2637 194.649 15.412 195.131 13.7074C195.29 13.6291 195.388 13.6025 195.581 13.5748C195.646 13.956 195.695 14.4299 195.658 14.7278C196.765 14.6312 197.962 13.9518 198.708 13.2314C198.037 12.085 196.58 10.7208 195.389 9.32362C194.232 7.96423 194.74 6.9547 195.153 5.43346C195.74 5.54556 198.829 10.1452 200 13.5298C199.7 14.325 199.4 15.1202 199.1 15.9152C198.376 16.408 197.653 16.7237 196.93 16.8614L196.93 16.8615ZM187.142 20.4542C186.853 21.9225 186.395 22.6563 185.769 22.6563C185.528 22.6557 185.215 22.5617 184.829 22.3722C184.203 22.8929 183.77 23.1536 183.529 23.1536C183.433 23.1533 183.264 23.0705 183.023 22.9049C182.782 22.7393 182.59 22.6563 182.445 22.6563C181.915 22.6558 180.735 23.1771 178.905 24.2188C176.882 25.3548 175.22 26.0654 173.919 26.3494L173.847 26.1362C175.099 25.8045 176.809 24.9288 178.977 23.5085C180.808 22.2775 182.132 21.6619 182.951 21.6619C183.095 21.6617 183.276 21.733 183.493 21.8752C183.71 22.0171 183.89 22.0882 184.035 22.0882C184.083 22.0879 184.468 21.8278 185.191 21.307C185.239 21.307 185.348 21.3544 185.516 21.4492C185.685 21.5432 185.841 21.5911 185.986 21.5911C186.178 21.5908 186.311 21.4372 186.383 21.1294C186.455 20.8214 186.708 20.5967 187.142 20.4543V20.4542ZM195.307 20.3829C195.162 21.1406 194.705 21.6856 193.934 22.017C192.633 22.6794 190.779 23.7688 188.37 25.2842C188.611 24.7155 188.996 24.1953 189.526 23.7217C191.02 22.6794 192.946 21.5674 195.307 20.3829ZM199.281 19.2472L197.908 20.5964L196.463 19.1758L197.836 17.8265L199.281 19.2472ZM190.971 7.24417C190.827 9.18525 189.093 10.5824 185.769 11.4349L185.552 11.3633C186.708 10.9376 187.888 10.1091 189.093 8.87801C189.093 8.45177 188.635 8.23881 187.72 8.23881C186.949 8.23853 186.203 8.42838 185.48 8.80693C185.962 7.71751 186.371 7.04341 186.708 6.7828C187.046 6.52188 187.624 6.39224 188.443 6.39224C189.454 6.39196 190.297 6.67632 190.971 7.24417H190.971Z" fill="#121212"/>
</g>
<defs>
<clipPath id="clip0_497_2">
<rect width="200" height="29.5455" fill="white"/>
</clipPath>
</defs>
</svg>
