<svg width="64" height="64" viewBox="0 0 64 64" fill="none" xmlns="http://www.w3.org/2000/svg">
<path d="M56.164 18.183H44.416C45.739 16.767 46.556 14.871 46.556 12.784C46.556 8.42398 43.01 4.87598 38.651 4.87598C35.861 4.87598 33.409 6.33198 32 8.51898C30.591 6.33098 28.139 4.87598 25.349 4.87598C20.99 4.87598 17.444 8.42298 17.444 12.784C17.444 14.871 18.261 16.767 19.584 18.183H7.836C5.794 18.183 4.132 19.844 4.132 21.887V28.82C4.132 30.606 5.403 32.101 7.088 32.448V55.348C7.088 57.431 8.782 59.125 10.865 59.125H53.134C55.217 59.125 56.911 57.431 56.911 55.348V32.448C58.596 32.101 59.867 30.607 59.867 28.82V21.887C59.868 19.844 58.207 18.183 56.164 18.183ZM28.826 50.451C28.842 50.467 28.854 50.477 28.87 50.493C29.546 51.14 30.058 51.74 30.58 52.498C30.912 52.979 31.428 53.255 31.999 53.255C32.588 53.255 33.114 52.975 33.447 52.48C33.785 51.97 34.154 51.493 34.544 51.059C34.774 50.801 34.982 50.577 35.172 50.379V56.605H28.825L28.826 50.451ZM37.504 44.69C37.352 44.882 37.135 45.114 36.858 45.391C36.563 45.689 36.323 45.92 36.139 46.087L35.299 46.826C34.703 47.36 34.24 47.778 33.919 48.077C33.586 48.388 33.166 48.823 32.668 49.382C32.438 49.638 32.214 49.907 31.998 50.185C31.577 49.659 31.129 49.172 30.609 48.674C30.214 48.298 29.913 48.01 29.709 47.827C29.5 47.639 29.172 47.343 28.712 46.944C28.33 46.612 28.041 46.354 27.851 46.182C27.663 46.011 27.406 45.77 27.091 45.463C26.818 45.196 26.614 44.966 26.474 44.784C26.32 44.584 26.14 44.333 25.94 44.025C25.789 43.795 25.668 43.558 25.588 43.338C25.386 42.777 25.271 42.121 25.271 41.539C25.271 40.716 25.614 39.885 26.19 39.316C26.773 38.741 27.61 38.396 28.432 38.396C28.936 38.396 29.405 38.51 29.867 38.744C30.324 38.976 30.688 39.285 30.982 39.688C31.457 40.337 32.544 40.337 33.018 39.688C33.312 39.285 33.676 38.976 34.132 38.744C35.348 38.13 36.873 38.386 37.81 39.315C38.385 39.886 38.729 40.717 38.729 41.539C38.729 41.838 38.698 42.137 38.637 42.424C38.498 43.084 38.348 43.456 38.026 43.951C37.834 44.241 37.665 44.485 37.504 44.69ZM35.174 35.924C34.425 35.971 33.68 36.148 32.993 36.496C32.636 36.677 32.304 36.891 32.001 37.135C31.696 36.89 31.364 36.676 31.007 36.496C30.321 36.147 29.577 35.971 28.827 35.924V32.522H35.174V35.924ZM25.901 30.004V20.701H38.104V30.004H25.901ZM38.651 7.39398C41.622 7.39398 44.038 9.81098 44.038 12.783C44.038 15.76 41.622 18.182 38.651 18.182H33.259V12.783C33.259 9.81198 35.678 7.39398 38.651 7.39398ZM25.349 7.39398C28.322 7.39398 30.741 9.81098 30.741 12.783V18.182H25.349C22.378 18.182 19.962 15.76 19.962 12.783C19.962 9.81198 22.378 7.39398 25.349 7.39398ZM6.651 28.819V21.886C6.651 21.232 7.182 20.701 7.836 20.701H23.383V30.004H7.836C7.182 30.004 6.651 29.473 6.651 28.819ZM9.606 55.346V32.523H26.308V36.321C25.61 36.596 24.959 36.99 24.419 37.524C23.36 38.572 22.753 40.034 22.753 41.537C22.753 42.716 23.046 43.705 23.219 44.187C23.365 44.596 23.573 45.006 23.833 45.402C24.072 45.767 24.289 46.072 24.477 46.317C24.709 46.619 24.998 46.938 25.335 47.266C25.674 47.596 25.951 47.856 26.156 48.044C26.196 48.08 26.259 48.136 26.307 48.179V56.606H10.866C10.171 56.606 9.606 56.041 9.606 55.346ZM53.134 56.606H37.692V48.075L37.836 47.948C38.043 47.759 38.314 47.498 38.641 47.168C38.999 46.813 39.279 46.504 39.477 46.253C39.679 46 39.893 45.694 40.134 45.325C40.702 44.453 40.931 43.744 41.1 42.943C41.197 42.482 41.246 42.009 41.246 41.536C41.246 40.033 40.64 38.571 39.582 37.524L39.581 37.523C39.041 36.988 38.389 36.594 37.691 36.319V32.522H54.393V55.346C54.394 56.041 53.829 56.606 53.134 56.606ZM57.349 28.819C57.349 29.473 56.818 30.004 56.164 30.004H40.622V20.701H56.164C56.818 20.701 57.349 21.232 57.349 21.886V28.819Z" fill="white"/>
</svg>
