<svg width="120" height="120" viewBox="0 0 120 120" fill="none" xmlns="http://www.w3.org/2000/svg">
<path fill-rule="evenodd" clip-rule="evenodd" d="M120 60C120 93.1371 93.1371 120 60 120C26.8629 120 0 93.1371 0 60C0 26.8629 26.8629 0 60 0C93.1371 0 120 26.8629 120 60ZM60 115.576C90.6938 115.576 115.576 90.6938 115.576 60C115.576 29.3062 90.6938 4.42396 60 4.42396C29.3062 4.42396 4.42396 29.3062 4.42396 60C4.42396 90.6938 29.3062 115.576 60 115.576ZM60 109.95C87.5865 109.95 109.95 87.5865 109.95 60C109.95 32.4135 87.5865 10.0501 60 10.0501C32.4135 10.0501 10.0501 32.4135 10.0501 60C10.0501 87.5865 32.4135 109.95 60 109.95ZM60.7791 29.0281H37.0626V71.7276L53.8253 71.773H60.7791C62.0677 71.773 63.326 71.7229 64.554 71.6219L77.831 89.9352H89.1577L74.3844 69.7192C77.6242 68.1641 80.4163 65.8362 82.5486 62.851C85.1404 59.2225 86.3067 55.7235 86.5659 50.54C86.3067 43.5421 84.4326 39.3012 79.568 34.6004C73.8661 30.0648 69.8488 28.6393 60.7791 29.0281ZM46.962 62.9798V37.9032H60.6122C66.1485 37.9032 70.0751 39.1068 72.6754 41.2401L72.6829 41.2463L72.6907 41.2525C75.2317 43.2917 76.5978 46.2708 76.5978 50.4824C76.5978 54.5681 75.2421 57.5373 72.6754 59.6431C70.0751 61.7762 66.1485 62.9798 60.6122 62.9798H46.962ZM47.1434 79.2327H37.0507V86.9565C37.0507 89.7434 39.31 92.0027 42.0969 92.0027C44.8841 92.0027 47.1434 89.7434 47.1434 86.9565V79.2327Z" fill="url(#paint0_linear_724_2)"/>
<defs>
<linearGradient id="paint0_linear_724_2" x1="120" y1="1.43051e-05" x2="1.43051e-05" y2="120" gradientUnits="userSpaceOnUse">
<stop stop-color="#FEFEFE"/>
<stop offset="1" stop-color="#989898"/>
</linearGradient>
</defs>
</svg>
