<svg width="90" height="90" viewBox="0 0 90 90" fill="none" xmlns="http://www.w3.org/2000/svg">
<circle cx="45" cy="45" r="45" fill="url(#paint0_linear_1666_76)"/>
<path d="M68.6457 56.0366L70.3469 59.1864C67.7719 66.01 63.3552 69.1604 57.0969 68.6378C55.6746 68.519 54.4572 68.1514 53.4447 67.5348C52.4728 66.9217 51.7533 66.2273 51.2861 65.4517C50.8189 64.6761 50.4702 63.7058 50.2401 62.5408C49.9356 60.7966 49.8801 58.5208 50.0737 55.7134C50.3078 52.9093 50.1236 50.9501 49.521 49.8359C48.959 48.725 47.7484 48.0305 45.8892 47.7525L46.9924 42.6271C47.0737 42.6339 47.1347 42.639 47.1753 42.6423C49.5323 42.8392 51.539 42.3315 53.1952 41.1194C54.987 39.7549 55.9812 37.8942 56.1781 35.5371C56.3749 33.1801 55.4236 31.0955 53.3243 29.2833C51.2655 27.4745 48.4887 26.4242 44.9938 26.1324C40.4829 25.7557 36.915 26.5831 34.2901 28.6146C32.8878 29.7251 32.1154 31.1338 31.9729 32.8406C31.793 34.9945 33.3303 36.4324 36.5847 37.1543L35.3495 41.6548C32.8807 41.3259 30.7558 40.3096 28.9748 38.6058C27.1937 36.902 26.405 34.831 26.6086 32.3927C26.9649 28.1257 29.0262 25.0036 32.7924 23.0264C36.5621 21.0087 41.19 20.2289 46.6762 20.687C50.2117 20.9823 53.2849 21.6686 55.8958 22.746C60.359 24.6737 63.1829 27.6103 64.3675 31.5559C64.7432 32.9377 64.8954 34.0553 64.8241 34.9087C64.7563 35.7215 64.7104 36.2701 64.6867 36.5546C64.3375 38.7761 63.3212 40.901 61.6377 42.9293C59.9948 44.961 57.6562 46.2593 54.6217 46.8244C56.3792 47.3394 57.5339 48.2134 58.0857 49.4462C58.6375 50.679 58.8336 52.4959 58.674 54.897C58.3719 59.0049 58.3461 61.5194 58.5965 62.4406C58.891 63.3246 59.5869 63.8123 60.6841 63.904C63.6507 64.1517 66.3046 61.5292 68.6457 56.0366ZM30.1536 66.3879C27.9998 66.208 26.3269 65.4136 25.1351 64.0045C23.9433 62.5955 23.4271 60.936 23.5866 59.026C24.0006 54.0681 27.9839 50.2267 35.5365 47.5018C37.9496 36.2452 39.1884 30.4763 39.2528 30.1953C41.0513 29.2406 43.0274 28.8531 45.1812 29.033C46.0753 29.1077 47.0811 29.3144 48.1986 29.6533L42.1847 55.3615C40.3004 63.2248 36.29 66.9003 30.1536 66.3879ZM28.1586 58.6712C28.05 59.9716 28.6865 60.6795 30.0682 60.7949C31.6938 60.9306 32.8522 59.5542 33.5436 56.6656L34.4383 52.5662C30.4317 54.4824 28.3384 56.5173 28.1586 58.6712Z" fill="white"/>
<defs>
<linearGradient id="paint0_linear_1666_76" x1="45" y1="0" x2="45" y2="90" gradientUnits="userSpaceOnUse">
<stop offset="0.185185" stop-color="#5EB9F0"/>
<stop offset="0.786566" stop-color="#366A8A"/>
</linearGradient>
</defs>
</svg>
