<svg width="44" height="44" viewBox="0 0 44 44" fill="none" xmlns="http://www.w3.org/2000/svg">
<circle cx="21.5356" cy="21.5356" r="21.5356" fill="#5EB9F0"/>
<path d="M33.2831 25.9836L34.2198 27.418C33.2635 30.7747 31.2827 32.4531 28.2772 32.4531C27.5942 32.4531 26.9989 32.3263 26.4915 32.0725C26.0036 31.8188 25.6328 31.5163 25.3791 31.1651C25.1254 30.8138 24.9205 30.3649 24.7643 29.8185C24.5497 28.9988 24.4326 27.9156 24.4131 26.569C24.4131 25.2224 24.2472 24.2954 23.9154 23.788C23.6031 23.2806 22.9981 22.9976 22.1004 22.9391L22.4224 20.4508C22.4615 20.4508 22.4907 20.4508 22.5102 20.4508C23.6422 20.4508 24.5789 20.1288 25.3205 19.4848C26.1207 18.7627 26.5208 17.8357 26.5208 16.7037C26.5208 15.5718 25.9841 14.6155 24.9107 13.8349C23.8568 13.0542 22.4907 12.6639 20.8124 12.6639C18.6461 12.6639 16.9775 13.2006 15.8065 14.274C15.182 14.8595 14.8698 15.562 14.8698 16.3817C14.8698 17.4161 15.6601 18.0406 17.2409 18.2552L16.8311 20.4508C15.6406 20.3922 14.5868 19.9922 13.6695 19.2506C12.7523 18.509 12.2936 17.5527 12.2936 16.3817C12.2936 14.3325 13.1523 12.7615 14.8698 11.6686C16.5872 10.5562 18.7632 10 21.3978 10C23.0957 10 24.5887 10.2049 25.8767 10.6148C28.0821 11.3564 29.5457 12.6444 30.2678 14.4789C30.502 15.1229 30.6191 15.6499 30.6191 16.0597C30.6191 16.45 30.6191 16.7135 30.6191 16.8501C30.5411 17.9235 30.141 18.9773 29.4189 20.0117C28.7163 21.046 27.6527 21.7584 26.228 22.1487C27.0867 22.3243 27.6722 22.6951 27.9845 23.2611C28.2967 23.8271 28.4626 24.6858 28.4821 25.8372C28.5016 27.8083 28.5895 29.0085 28.7456 29.4379C28.9212 29.8477 29.2725 30.0526 29.7995 30.0526C31.2241 30.0526 32.3853 28.6963 33.2831 25.9836ZM15.3381 32.4531C14.3038 32.4531 13.4744 32.1408 12.8499 31.5163C12.2253 30.8918 11.9131 30.1209 11.9131 29.2037C11.9131 26.8228 13.6598 24.8321 17.1531 23.2318C17.8557 17.7673 18.2167 14.9668 18.2363 14.8302C19.0559 14.3033 19.9829 14.0398 21.0173 14.0398C21.4466 14.0398 21.9345 14.0984 22.481 14.2154L20.6367 26.7154C20.0512 30.5405 18.285 32.4531 15.3381 32.4531ZM14.0794 28.8524C14.0794 29.4769 14.4111 29.7892 15.0747 29.7892C15.8553 29.7892 16.353 29.0866 16.5676 27.6815L16.8311 25.6908C14.9966 26.7642 14.0794 27.8181 14.0794 28.8524Z" fill="white"/>
</svg>
